<?xml version="1.0" encoding="UTF-8" standalone="no"?>
<!-- Created with Inkscape (http://www.inkscape.org/) -->

<svg
   xmlns:dc="http://purl.org/dc/elements/1.1/"
   xmlns:cc="http://creativecommons.org/ns#"
   xmlns:rdf="http://www.w3.org/1999/02/22-rdf-syntax-ns#"
   xmlns:svg="http://www.w3.org/2000/svg"
   xmlns="http://www.w3.org/2000/svg"
   xmlns:sodipodi="http://sodipodi.sourceforge.net/DTD/sodipodi-0.dtd"
   xmlns:inkscape="http://www.inkscape.org/namespaces/inkscape"
   sodipodi:docname="relationships.svg"
   inkscape:version="0.48.5 r10040"
   version="1.1"
   id="svg2"
   height="146.77209"
   width="146.27249">
  <sodipodi:namedview
     id="base"
     pagecolor="#ffffff"
     bordercolor="#666666"
     borderopacity="1.0"
     inkscape:pageopacity="0.0"
     inkscape:pageshadow="2"
     inkscape:zoom="0.7"
     inkscape:cx="573.85651"
     inkscape:cy="110.80364"
     inkscape:document-units="px"
     inkscape:current-layer="layer1"
     showgrid="false"
     inkscape:window-width="1920"
     inkscape:window-height="957"
     inkscape:window-x="0"
     inkscape:window-y="1"
     inkscape:window-maximized="1"
     inkscape:object-nodes="true"
     fit-margin-top="0"
     fit-margin-left="0"
     fit-margin-right="0"
     fit-margin-bottom="0" />
  <defs
     id="defs4" />
  <metadata
     id="metadata7">
    <rdf:RDF>
      <cc:Work
         rdf:about="">
        <dc:format>image/svg+xml</dc:format>
        <dc:type
           rdf:resource="http://purl.org/dc/dcmitype/StillImage" />
        <dc:title></dc:title>
      </cc:Work>
    </rdf:RDF>
  </metadata>
  <g
     id="layer1"
     inkscape:groupmode="layer"
     inkscape:label="Layer 1"
     transform="translate(-28.582052,-887.01212)">
    <g
       transform="matrix(0.41753572,0,0,0.41753572,-179.46504,492.65962)"
       id="g5323">
      <path
         id="path5294"
         d="M 644.84381,1277.5776 A 161.42859,161.42859 0 1 1 703.099,960.01959 161.42859,161.42859 0 0 1 644.84381,1277.5776 z"
         style="fill:none;stroke:#4d96e8;stroke-width:15;stroke-miterlimit:4;stroke-opacity:1;stroke-dasharray:none"
         inkscape:connector-curvature="0" />
      <path
         id="path5296"
         d="m 598.71182,1261.5974 c 4.1521,-7.7099 10.54969,-13.1702 19.2356,-14.2824 8.68591,-1.1123 14.3226,0.8811 20.49699,7.0907 6.17439,6.2096 8.12566,14.5869 6.3994,23.1719 -1.72014,8.5862 -9.03569,15.5651 -17.5,17.8095 -8.46432,2.2444 -20.48344,-1.9382 -25.78797,-8.9055 -5.30452,-6.9674 -7.00162,-17.1773 -2.84402,-24.8842 0,0 0,0 0,0"
         style="fill:#4d96e8;fill-opacity:1;stroke:none"
         inkscape:connector-curvature="0" />
      <path
         id="path5298"
         d="m 519.14454,1164.4241 c 8.3846,-2.526 17.02064,-1.411 23.78397,4.1513 6.76333,5.5623 8.87893,10.2453 8.88377,19.0021 0.005,8.7568 -4.66803,16.1805 -11.94694,21.0488 -7.27544,4.8734 -17.22161,4.5774 -24.80871,0.205 -7.5871,-4.3724 -13.31981,-16.7081 -11.88232,-25.3461 1.43749,-8.638 7.58384,-16.5411 15.97023,-19.0611 0,0 0,0 0,0"
         style="fill:#4d96e8;fill-opacity:1;stroke:none"
         inkscape:connector-curvature="0" />
      <path
         id="path5300"
         d="m 533.29934,1039.6312 c 7.58814,4.3706 12.87759,10.9244 13.74334,19.6383 0.86575,8.714 -1.27469,14.3456 -7.66763,20.3299 -6.39293,5.9844 -14.72336,7.4311 -23.30919,5.709 -8.58706,-1.7161 -15.33081,-9.5121 -17.31898,-18.0402 -1.98817,-8.5282 2.4944,-20.3881 9.60923,-25.4931 7.11483,-5.105 17.35821,-6.5199 24.94323,-2.1439 0,0 0,0 0,0"
         style="fill:#4d96e8;fill-opacity:1;stroke:none"
         inkscape:connector-curvature="0" />
      <path
         id="path5302"
         d="m 632.63037,962.77421 c 2.26527,8.45878 0.86813,17.11205 -4.91309,23.68927 -5.78122,6.57722 -10.54266,8.73835 -19.29386,8.42424 -8.75121,-0.31412 -15.95826,-5.17161 -20.55384,-12.62566 -4.6009,-7.45077 -3.99301,-17.45698 0.65286,-24.8798 4.64587,-7.42281 17.011,-12.86096 25.59724,-11.14085 8.58624,1.72012 16.25145,8.07241 18.51069,16.5328 0,0 0,0 0,0"
         style="fill:#4d96e8;fill-opacity:1;stroke:none"
         inkscape:connector-curvature="0" />
      <path
         id="path5304"
         d="m 756.98795,980.35754 c -4.40065,7.57077 -11.45863,12.57965 -20.19867,13.12178 -8.74004,0.54213 -13.45758,-1.58573 -19.42314,-7.9962 -5.96556,-6.41047 -7.57841,-15.07576 -5.56758,-23.59858 2.00475,-8.52426 9.48411,-15.03002 18.01805,-16.99314 8.53395,-1.96312 21.05144,3.27729 25.88922,10.57647 4.83778,7.29918 5.68816,17.32204 1.28212,24.88967 0,0 0,0 0,0"
         style="fill:#4d96e8;fill-opacity:1;stroke:none"
         inkscape:connector-curvature="0" />
      <path
         id="path5306"
         d="m 831.07864,1081.7723 c -8.53347,1.9651 -17.19649,0.3076 -23.5749,-5.6922 -6.37842,-5.9998 -8.45228,-10.6881 -7.8803,-19.4263 0.57198,-8.7381 5.62495,-15.7816 13.2072,-20.1624 7.57913,-4.3862 17.586,-3.4868 24.8686,1.3759 7.28261,4.8626 12.47112,17.4567 10.46231,25.98 -2.00881,8.5233 -8.54803,15.9659 -17.08291,17.925 0,0 0,0 0,0"
         style="fill:#4d96e8;fill-opacity:1;stroke:none"
         inkscape:connector-curvature="0" />
      <path
         id="path5308"
         d="m 810.06972,1205.5975 c -7.44019,-4.6179 -12.25598,-11.8137 -12.55032,-20.5655 -0.29433,-8.7519 1.94641,-13.4471 8.52999,-19.2211 6.58357,-5.774 15.27663,-7.149 23.73316,-4.8754 8.45814,2.2676 14.76324,9.929 16.47391,18.5172 1.71068,8.5881 -3.84342,20.9358 -11.27671,25.5649 -7.43328,4.6291 -17.47313,5.2032 -24.91003,0.5799 0,0 0,0 0,0"
         style="fill:#4d96e8;fill-opacity:1;stroke:none"
         inkscape:connector-curvature="0" />
      <path
         id="path5310"
         d="m 706.6543,1276.8686 c -1.71271,-8.5877 -0.24332,-16.8568 5.74755,-23.2437 5.99086,-6.3868 11.66746,-8.4533 20.37996,-7.5732 8.71249,0.8802 15.2895,6.2248 19.64024,13.8243 4.35615,7.5965 2.9069,17.7849 -2.20993,24.8913 -5.11682,7.1063 -16.99421,11.4952 -25.52034,9.4983 -8.52613,-1.9968 -16.33089,-8.808 -18.03748,-17.397 0,0 0,0 0,0"
         style="fill:#4d96e8;fill-opacity:1;stroke:none"
         inkscape:connector-curvature="0" />
    </g>
  </g>
</svg>
