<?xml version="1.0" encoding="UTF-8" standalone="no"?>
<!-- Created with Inkscape (http://www.inkscape.org/) -->

<svg
   xmlns:dc="http://purl.org/dc/elements/1.1/"
   xmlns:cc="http://creativecommons.org/ns#"
   xmlns:rdf="http://www.w3.org/1999/02/22-rdf-syntax-ns#"
   xmlns:svg="http://www.w3.org/2000/svg"
   xmlns="http://www.w3.org/2000/svg"
   xmlns:sodipodi="http://sodipodi.sourceforge.net/DTD/sodipodi-0.dtd"
   xmlns:inkscape="http://www.inkscape.org/namespaces/inkscape"
   sodipodi:docname="relationships.svg"
   inkscape:version="0.48.5 r10040"
   version="1.1"
   id="svg2"
   height="146.77209"
   width="146.27249">
  <sodipodi:namedview
     id="base"
     pagecolor="#ffffff"
     bordercolor="#666666"
     borderopacity="1.0"
     inkscape:pageopacity="0.0"
     inkscape:pageshadow="2"
     inkscape:zoom="0.24748737"
     inkscape:cx="628.81662"
     inkscape:cy="682.29314"
     inkscape:document-units="px"
     inkscape:current-layer="layer1"
     showgrid="false"
     inkscape:window-width="1920"
     inkscape:window-height="957"
     inkscape:window-x="0"
     inkscape:window-y="1"
     inkscape:window-maximized="1"
     inkscape:object-nodes="true"
     fit-margin-top="0"
     fit-margin-left="0"
     fit-margin-right="0"
     fit-margin-bottom="0" />
  <defs
     id="defs4" />
  <metadata
     id="metadata7">
    <rdf:RDF>
      <cc:Work
         rdf:about="">
        <dc:format>image/svg+xml</dc:format>
        <dc:type
           rdf:resource="http://purl.org/dc/dcmitype/StillImage" />
        <dc:title></dc:title>
      </cc:Work>
    </rdf:RDF>
  </metadata>
  <g
     id="layer1"
     inkscape:groupmode="layer"
     inkscape:label="Layer 1"
     transform="translate(-30.764797,-887.07304)">
    <g
       id="g4906"
       transform="matrix(0.41753572,0,0,0.41753572,-90.409174,817.98966)">
      <path
         inkscape:connector-curvature="0"
         style="fill:none;stroke:#bedded;stroke-width:15;stroke-miterlimit:4;stroke-opacity:1;stroke-dasharray:none"
         id="path2985"
         d="M 436.78228,498.55651 A 161.42858,161.42858 0 1 1 495.03747,180.99853 161.42858,161.42858 0 0 1 436.78228,498.55651 z" />
      <path
         inkscape:connector-curvature="0"
         style="fill:#bedded;fill-opacity:1;stroke:none"
         id="path3200"
         d="m 390.65029,482.57636 c 4.1521,-7.70989 10.54969,-13.1702 19.2356,-14.28244 8.68591,-1.11224 14.3226,0.88114 20.49699,7.09071 6.17439,6.20958 8.12566,14.58689 6.3994,23.17187 -1.72014,8.58622 -9.03569,15.56516 -17.5,17.80957 -8.46432,2.2444 -20.48344,-1.93821 -25.78797,-8.90557 -5.30452,-6.96736 -7.00162,-17.17723 -2.84402,-24.88414 0,0 0,0 0,0 m -79.56728,-97.17334 c 8.3846,-2.52596 17.02064,-1.41103 23.78397,4.15128 6.76333,5.5623 8.87893,10.24529 8.88377,19.00212 0.005,8.75683 -4.66803,16.18056 -11.94694,21.04878 -7.27544,4.87341 -17.22161,4.57748 -24.80871,0.20506 -7.5871,-4.37241 -13.31981,-16.70811 -11.88232,-25.34614 1.43749,-8.63803 7.58384,-16.54112 15.97023,-19.0611 0,0 0,0 0,0 m 14.1548,-124.79289 c 7.58814,4.37061 12.87759,10.92442 13.74334,19.63835 0.86575,8.71394 -1.27469,14.34553 -7.66763,20.32989 -6.39293,5.98437 -14.72336,7.43108 -23.30919,5.70892 -8.58706,-1.71603 -15.33081,-9.51202 -17.31898,-18.04018 -1.98817,-8.52816 2.4944,-20.38804 9.60923,-25.49307 7.11483,-5.10504 17.35821,-6.51993 24.94323,-2.14391 0,0 0,0 0,0 m 99.33103,-76.85698 c 2.26527,8.45878 0.86813,17.11205 -4.91309,23.68927 -5.78122,6.57722 -10.54266,8.73835 -19.29386,8.42424 -8.75121,-0.31412 -15.95826,-5.17161 -20.55384,-12.62566 -4.6009,-7.45077 -3.99301,-17.45698 0.65286,-24.8798 4.64587,-7.42281 17.011,-12.86096 25.59724,-11.14085 8.58624,1.72012 16.25145,8.07241 18.51069,16.5328 0,0 0,0 0,0 m 124.35758,17.58333 c -4.40065,7.57077 -11.45863,12.57965 -20.19867,13.12178 -8.74004,0.54213 -13.45758,-1.58573 -19.42314,-7.9962 -5.96556,-6.41047 -7.57841,-15.07576 -5.56758,-23.59858 2.00475,-8.52426 9.48411,-15.03002 18.01805,-16.99314 8.53395,-1.96312 21.05144,3.27729 25.88922,10.57647 4.83778,7.29918 5.68816,17.32204 1.28212,24.88967 0,0 0,0 0,0 m 74.09069,101.41475 c -8.53347,1.96515 -17.19649,0.30762 -23.5749,-5.69219 -6.37842,-5.99981 -8.45228,-10.68815 -7.8803,-19.42628 0.57198,-8.73813 5.62495,-15.78163 13.2072,-20.16243 7.57913,-4.38622 17.586,-3.48682 24.8686,1.37586 7.28261,4.86268 12.47112,17.45671 10.46231,25.98001 -2.00881,8.5233 -8.54803,15.96597 -17.08291,17.92503 0,0 0,0 0,0 m -21.00892,123.82524 c -7.44019,-4.61795 -12.25598,-11.8137 -12.55032,-20.56558 -0.29433,-8.75189 1.94641,-13.4471 8.52999,-19.22109 6.58357,-5.77398 15.27663,-7.14898 23.73316,-4.87534 8.45814,2.26761 14.76324,9.92902 16.47391,18.51715 1.71068,8.58812 -3.84342,20.93587 -11.27671,25.56494 -7.43328,4.62908 -17.47313,5.20319 -24.91003,0.57992 0,0 0,0 0,0 m -103.41542,71.2711 c -1.71271,-8.58772 -0.24332,-16.85688 5.74755,-23.24373 5.99086,-6.38685 11.66746,-8.45335 20.37996,-7.57316 8.71249,0.8802 15.2895,6.22473 19.64024,13.8243 4.35615,7.59645 2.9069,17.78488 -2.20993,24.89124 -5.11682,7.10636 -16.99421,11.49517 -25.52034,9.49832 -8.52613,-1.99684 -16.33089,-8.80804 -18.03748,-17.39697 0,0 0,0 0,0" />
    </g>
  </g>
</svg>
