<?xml version="1.0" encoding="UTF-8" standalone="no"?>
<!-- Created with Inkscape (http://www.inkscape.org/) -->

<svg
   xmlns:dc="http://purl.org/dc/elements/1.1/"
   xmlns:cc="http://creativecommons.org/ns#"
   xmlns:rdf="http://www.w3.org/1999/02/22-rdf-syntax-ns#"
   xmlns:svg="http://www.w3.org/2000/svg"
   xmlns="http://www.w3.org/2000/svg"
   xmlns:sodipodi="http://sodipodi.sourceforge.net/DTD/sodipodi-0.dtd"
   xmlns:inkscape="http://www.inkscape.org/namespaces/inkscape"
   sodipodi:docname="relationships.svg"
   inkscape:version="0.48.5 r10040"
   version="1.1"
   id="svg2"
   height="148.05011"
   width="202.22318">
  <sodipodi:namedview
     id="base"
     pagecolor="#ffffff"
     bordercolor="#666666"
     borderopacity="1.0"
     inkscape:pageopacity="0.0"
     inkscape:pageshadow="2"
     inkscape:zoom="0.69999999"
     inkscape:cx="-165.96794"
     inkscape:cy="309.98812"
     inkscape:document-units="px"
     inkscape:current-layer="layer1"
     showgrid="false"
     inkscape:window-width="1920"
     inkscape:window-height="957"
     inkscape:window-x="0"
     inkscape:window-y="1"
     inkscape:window-maximized="1"
     inkscape:object-nodes="true"
     fit-margin-top="0"
     fit-margin-left="0"
     fit-margin-right="0"
     fit-margin-bottom="0" />
  <defs
     id="defs4" />
  <metadata
     id="metadata7">
    <rdf:RDF>
      <cc:Work
         rdf:about="">
        <dc:format>image/svg+xml</dc:format>
        <dc:type
           rdf:resource="http://purl.org/dc/dcmitype/StillImage" />
        <dc:title></dc:title>
      </cc:Work>
    </rdf:RDF>
  </metadata>
  <g
     id="layer1"
     inkscape:groupmode="layer"
     inkscape:label="Layer 1"
     transform="translate(-9.044501,-896.75325)">
    <g
       id="g4709"
       transform="translate(168.57143,518.57144)">
      <path
         transform="matrix(0.41473147,0.42839955,-0.42839955,0.41473147,237.5851,13.563876)"
         d="m 319.64286,897.00507 c 0,12.22916 -9.9137,22.14285 -22.14286,22.14285 -12.22916,0 -22.14286,-9.91369 -22.14286,-22.14285 0,-12.22917 9.9137,-22.14286 22.14286,-22.14286 12.22916,0 22.14286,9.91369 22.14286,22.14286 z"
         sodipodi:ry="22.142857"
         sodipodi:rx="22.142857"
         sodipodi:cy="897.00507"
         sodipodi:cx="297.5"
         id="path5206"
         style="fill:#4d98e8;fill-opacity:1;fill-rule:nonzero;stroke:none"
         sodipodi:type="arc" />
      <path
         sodipodi:type="arc"
         style="fill:#4d98e8;fill-opacity:1;fill-rule:nonzero;stroke:none"
         id="path5232"
         sodipodi:cx="297.5"
         sodipodi:cy="897.00507"
         sodipodi:rx="22.142857"
         sodipodi:ry="22.142857"
         d="m 319.64286,897.00507 c 0,12.22916 -9.9137,22.14285 -22.14286,22.14285 -12.22916,0 -22.14286,-9.91369 -22.14286,-22.14285 0,-12.22917 9.9137,-22.14286 22.14286,-22.14286 12.22916,0 22.14286,9.91369 22.14286,22.14286 z"
         transform="matrix(0.41473147,0.42839955,-0.42839955,0.41473147,266.61638,-22.959438)" />
      <path
         transform="matrix(0.41473147,0.42839955,-0.42839955,0.41473147,283.61554,-64.978145)"
         d="m 319.64286,897.00507 c 0,12.22916 -9.9137,22.14285 -22.14286,22.14285 -12.22916,0 -22.14286,-9.91369 -22.14286,-22.14285 0,-12.22917 9.9137,-22.14286 22.14286,-22.14286 12.22916,0 22.14286,9.91369 22.14286,22.14286 z"
         sodipodi:ry="22.142857"
         sodipodi:rx="22.142857"
         sodipodi:cy="897.00507"
         sodipodi:cx="297.5"
         id="path5234"
         style="fill:#4d98e8;fill-opacity:1;fill-rule:nonzero;stroke:none"
         sodipodi:type="arc" />
      <path
         sodipodi:type="arc"
         style="fill:#4d98e8;fill-opacity:1;fill-rule:nonzero;stroke:none"
         id="path5236"
         sodipodi:cx="297.5"
         sodipodi:cy="897.00507"
         sodipodi:rx="22.142857"
         sodipodi:ry="22.142857"
         d="m 319.64286,897.00507 c 0,12.22916 -9.9137,22.14285 -22.14286,22.14285 -12.22916,0 -22.14286,-9.91369 -22.14286,-22.14285 0,-12.22917 9.9137,-22.14286 22.14286,-22.14286 12.22916,0 22.14286,9.91369 22.14286,22.14286 z"
         transform="matrix(0.41473147,0.42839955,-0.42839955,0.41473147,290.38724,-107.89605)" />
      <path
         sodipodi:type="arc"
         style="fill:#4d98e8;fill-opacity:1;fill-rule:nonzero;stroke:none"
         id="path5238"
         sodipodi:cx="297.5"
         sodipodi:cy="897.00507"
         sodipodi:rx="22.142857"
         sodipodi:ry="22.142857"
         d="m 319.64286,897.00507 c 0,12.22916 -9.9137,22.14285 -22.14286,22.14285 -12.22916,0 -22.14286,-9.91369 -22.14286,-22.14285 0,-12.22917 9.9137,-22.14286 22.14286,-22.14286 12.22916,0 22.14286,9.91369 22.14286,22.14286 z"
         transform="matrix(0.41473147,0.42839955,-0.42839955,0.41473147,114.56998,-108.08033)" />
      <g
         transform="translate(-188.89853,41.961941)"
         id="g4694">
        <path
           style="fill:none;stroke:#4d96e8;stroke-width:13.94447327;stroke-linecap:butt;stroke-linejoin:miter;stroke-miterlimit:4;stroke-opacity:1;stroke-dasharray:none"
           d="m 45.500707,349.6474 c 144.631913,0 170.558353,0 170.558353,0"
           id="path4680"
           inkscape:connector-curvature="0"
           inkscape:transform-center-x="-85.279177" />
        <path
           inkscape:transform-center-x="-82.373362"
           inkscape:connector-curvature="0"
           id="path4688"
           d="M 45.500707,349.6474 C 185.20441,387.08089 210.24743,393.79115 210.24743,393.79115"
           style="fill:none;stroke:#4d96e8;stroke-width:13.94447327;stroke-linecap:butt;stroke-linejoin:miter;stroke-miterlimit:4;stroke-opacity:1;stroke-dasharray:none"
           inkscape:transform-center-y="22.071875" />
        <path
           inkscape:transform-center-y="42.63959"
           style="fill:none;stroke:#4d96e8;stroke-width:13.94447327;stroke-linecap:butt;stroke-linejoin:miter;stroke-miterlimit:4;stroke-opacity:1;stroke-dasharray:none"
           d="M 45.500707,349.6474 C 170.75562,421.96335 193.20858,434.92658 193.20858,434.92658"
           id="path4690"
           inkscape:connector-curvature="0"
           inkscape:transform-center-x="-73.853937" />
        <path
           inkscape:transform-center-x="-60.301487"
           inkscape:connector-curvature="0"
           id="path4692"
           d="M 45.500707,349.6474 C 147.77092,451.9176 166.10368,470.25037 166.10368,470.25037"
           style="fill:none;stroke:#4d96e8;stroke-width:13.94447327;stroke-linecap:butt;stroke-linejoin:miter;stroke-miterlimit:4;stroke-opacity:1;stroke-dasharray:none"
           inkscape:transform-center-y="60.301485" />
      </g>
    </g>
  </g>
</svg>
